<svg xmlns="http://www.w3.org/2000/svg" width="1280" height="800" viewBox="0 0 1280 800">
  <rect width="1280" height="800" fill="#0d0d0d"/>
  <!-- Navbar -->
  <rect width="1280" height="50" fill="#111111"/>
  <text x="20" y="32" font-family="Arial" font-size="18" font-weight="bold" fill="#a855f7">&#9835; LyricFinder</text>
  <circle cx="1260" cy="25" r="10" fill="#f59e0b"/>
  <!-- Main content -->
  <text x="420" y="120" font-family="Arial" font-size="36" font-weight="bold" fill="white">Find Any Song</text>
  <text x="420" y="150" font-family="Arial" font-size="16" fill="#9ca3af">Search by song title or artist</text>
  <!-- Search bar -->
  <rect x="420" y="170" width="600" height="50" rx="8" fill="#1f2937" stroke="#374151" stroke-width="1"/>
  <text x="440" y="201" font-family="Arial" font-size="15" fill="#6b7280">e.g. Blinding Lights...</text>
  <rect x="1030" y="170" width="90" height="50" rx="8" fill="#a855f7"/>
  <text x="1055" y="201" font-family="Arial" font-size="15" fill="white">Search</text>
  <!-- Top 10 label -->
  <text x="420" y="265" font-family="Arial" font-size="13" font-weight="bold" fill="#6b7280" letter-spacing="2">TOP 10 SONGS</text>
  <!-- Song rows -->
  <rect x="420" y="280" width="700" height="55" rx="6" fill="#1a1a1a"/>
  <text x="445" y="313" font-family="Arial" font-size="14" fill="#9ca3af">1</text>
  <rect x="465" y="288" width="38" height="38" rx="4" fill="#374151"/>
  <text x="515" y="308" font-family="Arial" font-size="14" font-weight="bold" fill="white">Choosin' Texas</text>
  <text x="515" y="326" font-family="Arial" font-size="12" fill="#6b7280">Ella Langley</text>
  <text x="1075" y="313" font-family="Arial" font-size="12" fill="#a855f7">&#9660; lyrics</text>
  <rect x="420" y="340" width="700" height="55" rx="6" fill="#1a1a1a"/>
  <text x="445" y="373" font-family="Arial" font-size="14" fill="#9ca3af">2</text>
  <rect x="465" y="348" width="38" height="38" rx="4" fill="#374151"/>
  <text x="515" y="368" font-family="Arial" font-size="14" font-weight="bold" fill="white">I Knew It, I Knew You (From Toy Story 5)</text>
  <text x="515" y="386" font-family="Arial" font-size="12" fill="#6b7280">Taylor Swift</text>
  <text x="1075" y="373" font-family="Arial" font-size="12" fill="#a855f7">&#9660; lyrics</text>
  <rect x="420" y="400" width="700" height="55" rx="6" fill="#1a1a1a"/>
  <text x="445" y="433" font-family="Arial" font-size="14" fill="#9ca3af">3</text>
  <rect x="465" y="408" width="38" height="38" rx="4" fill="#374151"/>
  <text x="515" y="428" font-family="Arial" font-size="14" font-weight="bold" fill="white">Dancing On My Own</text>
  <text x="515" y="446" font-family="Arial" font-size="12" fill="#6b7280">Robyn</text>
  <text x="1075" y="433" font-family="Arial" font-size="12" fill="#a855f7">&#9660; lyrics</text>
  <rect x="420" y="460" width="700" height="55" rx="6" fill="#1a1a1a"/>
  <text x="445" y="493" font-family="Arial" font-size="14" fill="#9ca3af">4</text>
  <rect x="465" y="468" width="38" height="38" rx="4" fill="#374151"/>
  <text x="515" y="488" font-family="Arial" font-size="14" font-weight="bold" fill="white">Be Her</text>
  <text x="515" y="506" font-family="Arial" font-size="12" fill="#6b7280">Ella Langley</text>
  <text x="1075" y="493" font-family="Arial" font-size="12" fill="#a855f7">&#9660; lyrics</text>
  <rect x="420" y="520" width="700" height="55" rx="6" fill="#1a1a1a"/>
  <text x="445" y="553" font-family="Arial" font-size="14" fill="#9ca3af">5</text>
  <rect x="465" y="528" width="38" height="38" rx="4" fill="#374151"/>
  <text x="515" y="548" font-family="Arial" font-size="14" font-weight="bold" fill="white">Another Drink</text>
  <text x="515" y="566" font-family="Arial" font-size="12" fill="#6b7280">Marshmello &amp; Kelsea Ballerini</text>
  <text x="1075" y="553" font-family="Arial" font-size="12" fill="#a855f7">&#9660; lyrics</text>
</svg>
