<svg xmlns="http://www.w3.org/2000/svg" width="1280" height="800" viewBox="0 0 1280 800">
  <rect width="1280" height="800" fill="#0d0d0d"/>
  <rect width="1280" height="50" fill="#111111"/>
  <text x="20" y="32" font-family="Arial" font-size="18" font-weight="bold" fill="#a855f7">&#9835; LyricFinder</text>
  <circle cx="1260" cy="25" r="10" fill="#f59e0b"/>
  <text x="420" y="120" font-family="Arial" font-size="36" font-weight="bold" fill="white">Find Any Song</text>
  <text x="420" y="150" font-family="Arial" font-size="16" fill="#9ca3af">Search by song title or artist</text>
  <rect x="420" y="170" width="600" height="50" rx="8" fill="#1f2937" stroke="#374151" stroke-width="1"/>
  <text x="440" y="201" font-family="Arial" font-size="15" fill="white">Taylor Swift</text>
  <rect x="1030" y="170" width="90" height="50" rx="8" fill="#a855f7"/>
  <text x="1055" y="201" font-family="Arial" font-size="15" fill="white">Search</text>
  <!-- Search results -->
  <rect x="420" y="240" width="700" height="60" rx="6" fill="#1a1a1a"/>
  <rect x="430" y="251" width="40" height="40" rx="4" fill="#374151"/>
  <text x="485" y="272" font-family="Arial" font-size="14" font-weight="bold" fill="white">All Too Well (10 Minute Version) (Taylor's Version)</text>
  <text x="485" y="290" font-family="Arial" font-size="12" fill="#6b7280">Taylor Swift</text>
  <text x="1090" y="276" font-family="Arial" font-size="13" fill="#a855f7">View &#8594;</text>
  <rect x="420" y="305" width="700" height="60" rx="6" fill="#1a1a1a"/>
  <rect x="430" y="316" width="40" height="40" rx="4" fill="#374151"/>
  <text x="485" y="337" font-family="Arial" font-size="14" font-weight="bold" fill="white">Wood</text>
  <text x="485" y="355" font-family="Arial" font-size="12" fill="#6b7280">Taylor Swift</text>
  <text x="1090" y="341" font-family="Arial" font-size="13" fill="#a855f7">View &#8594;</text>
  <rect x="420" y="370" width="700" height="60" rx="6" fill="#1a1a1a"/>
  <rect x="430" y="381" width="40" height="40" rx="4" fill="#374151"/>
  <text x="485" y="402" font-family="Arial" font-size="14" font-weight="bold" fill="white">Fortnight</text>
  <text x="485" y="420" font-family="Arial" font-size="12" fill="#6b7280">Taylor Swift</text>
  <text x="1090" y="406" font-family="Arial" font-size="13" fill="#a855f7">View &#8594;</text>
  <rect x="420" y="435" width="700" height="60" rx="6" fill="#1a1a1a"/>
  <rect x="430" y="446" width="40" height="40" rx="4" fill="#374151"/>
  <text x="485" y="467" font-family="Arial" font-size="14" font-weight="bold" fill="white">cardigan</text>
  <text x="485" y="485" font-family="Arial" font-size="12" fill="#6b7280">Taylor Swift</text>
  <text x="1090" y="471" font-family="Arial" font-size="13" fill="#a855f7">View &#8594;</text>
  <rect x="420" y="500" width="700" height="60" rx="6" fill="#1a1a1a"/>
  <rect x="430" y="511" width="40" height="40" rx="4" fill="#374151"/>
  <text x="485" y="532" font-family="Arial" font-size="14" font-weight="bold" fill="white">So Long, London</text>
  <text x="485" y="550" font-family="Arial" font-size="12" fill="#6b7280">Taylor Swift</text>
  <text x="1090" y="536" font-family="Arial" font-size="13" fill="#a855f7">View &#8594;</text>
</svg>
